<svg xmlns="http://www.w3.org/2000/svg" viewBox="0 0 450 450"><g transform="matrix(1.2162162162162162,0,0,1.2162162162162162,0,0)"><g data-name="Scenes"><path d="M359.15 224.32c0 101.43-75.16 105.18-167.87 105.18S23.42 325.75 23.42 224.32 98.57 40.67 191.28 40.67s167.87 82.23 167.87 183.65z" fill="#ed2c49"></path><path d="M292.68 260.14a102.24 102.24 0 1 0-101.92 15.63c-36 7.33-68.45 15.47-69.38 21.17-2.12 13 9.52 17.44 9.52 17.44h63.9l-4.41 13.29h109.15c27.54-16.93 21.01-54.44-6.86-67.53z" fill="#ffffff"></path><path d="M270.51 190.93a50 50 0 0 0 41 49.18A102.4 102.4 0 0 0 322.63 141h-2.12a50 50 0 0 0-50 49.93z" fill="#e0e0e0"></path><circle cx="188.9" cy="190.93" r="50" fill="#e0e0e0"></circle><path d="M228.36 78.4a102.25 102.25 0 0 0-49.7 191.6c-30.43-55.17-17.48-86-17.48-86h169.38c0-1.1.05-2.2.05-3.31A102.25 102.25 0 0 0 228.36 78.4z" fill="#e0e0e0"></path><path d="M299.54 327.71c27.54-17 21-54.48-6.86-67.57a102.24 102.24 0 1 0-101.92 15.63c-36 7.33-68.45 15.47-69.38 21.17-2.12 13 9.52 17.44 9.52 17.44h63.9l-4.41 13.29" stroke="#45413c" stroke-linecap="round" stroke-linejoin="round" stroke-width="4" fill="none"></path><circle cx="228.36" cy="78.4" r="10.23" fill="#ff512e" stroke="#45413c" stroke-linecap="round" stroke-linejoin="round" stroke-width="4"></circle><path d="M92.37 155.09h37a102.27 102.27 0 0 1 200.78 15.34H92.37a7.67 7.67 0 1 1 0-15.34z" fill="#ff866e"></path><path d="M273.32 170.43v-7.67a5.11 5.11 0 0 0-5.11-5.12h-37.07v12.79z" fill="#ff512e"></path><path d="M138.77 170.43h5.11a125.15 125.15 0 0 1 108.37-89.22 102.37 102.37 0 0 0-122.92 73.88h-37a7.67 7.67 0 1 0 0 15.34z" fill="#ffcabf"></path><path d="M129.33 155.09h-37a7.67 7.67 0 1 0 0 15.34h34.24a100.61 100.61 0 0 1 2.76-15.34z" fill="#ff512e"></path><path d="M92.37 155.09h37a102.27 102.27 0 0 1 200.78 15.34H92.37a7.67 7.67 0 1 1 0-15.34z" stroke="#45413c" stroke-linecap="round" stroke-linejoin="round" stroke-width="4" fill="none"></path><path d="M231.14 157.64a15.34 15.34 0 0 1 30.68 0z" stroke="#45413c" stroke-linecap="round" stroke-linejoin="round" stroke-width="4" fill="#e0e0e0"></path><path d="M127.78 162.12q.65-3.5 1.51-6.9" stroke="#45413c" stroke-linecap="round" stroke-linejoin="round" stroke-width="4" fill="#ffffff"></path><path d="M261.82 157.64h6.39a5.11 5.11 0 0 1 5.11 5.12v7.67m-33.87 44.25 3.19-6.35c0 4.89 5.73 8.86 12.79 8.86s12.78-4 12.78-8.86l3.28 6.79" stroke="#45413c" stroke-linecap="round" stroke-linejoin="round" stroke-width="4" fill="none"></path><circle cx="314.95" cy="189.08" r="43.46" stroke="#45413c" stroke-linecap="round" stroke-linejoin="round" stroke-width="4" fill="#ffffff"></circle><circle cx="336.62" cy="189.08" r="5.11" fill="#45413c"></circle><circle cx="194.8" cy="189.08" r="43.46" stroke="#45413c" stroke-linecap="round" stroke-linejoin="round" stroke-width="4" fill="#ffffff"></circle><circle cx="216.47" cy="189.08" r="5.11" fill="#45413c"></circle><path stroke="#45413c" stroke-linecap="round" stroke-linejoin="round" stroke-width="4" fill="none" d="M30.49 327.71H285.5m-18.83-52.22a102.13 102.13 0 0 0 26-15.35m-101.92 15.63q4.68 1.85 9.56 3.24"></path><path d="M220.45 284.55a1.48 1.48 0 0 1 .11-1.48 1.47 1.47 0 0 1 1.35-.64 88.22 88.22 0 0 0 29.18-2.94 1.47 1.47 0 0 1 1.81 1.88c-1.59 4.95-6 15.19-15.27 16s-14.99-8.37-17.18-12.82z" fill="#e0e0e0"></path><path d="M96.26 316a2.07 2.07 0 0 1 2-1.6h92.6v13.29H96.13a2.06 2.06 0 0 1-2-2.54z" fill="#bdbec0" stroke="#45413c" stroke-linecap="round" stroke-linejoin="round" stroke-width="4"></path><path d="M172.68 316a2.09 2.09 0 0 1 2-1.6h29a2.07 2.07 0 0 1 2 1.6l2.14 9.15a2.06 2.06 0 0 1-2 2.54H170z" fill="#87898c" stroke="#45413c" stroke-linecap="round" stroke-linejoin="round" stroke-width="4"></path><path d="M102 327.71H64.75a2.7 2.7 0 0 1-2.56-3.56l3.57-10.56a2.7 2.7 0 0 1 2.55-1.83H102z" fill="#bdbec0" stroke="#45413c" stroke-linecap="round" stroke-linejoin="round" stroke-width="4"></path><path d="M182.62 296.94a5.39 5.39 0 0 1-5.39 5.39h-23.82V189.8h23.82a5.39 5.39 0 0 1 5.39 5.39z" fill="#87898c" stroke="#45413c" stroke-linecap="round" stroke-linejoin="round" stroke-width="4"></path><rect x="19.24" y="189.8" width="150.14" height="112.52" rx="5.39" fill="#f0f0f0"></rect><path d="M169.38 200v-4.79a5.4 5.4 0 0 0-5.38-5.41H24.63a5.4 5.4 0 0 0-5.39 5.39V200z" fill="#ffffff"></path><rect x="19.24" y="189.8" width="150.14" height="112.52" rx="5.39" stroke="#45413c" stroke-linecap="round" stroke-linejoin="round" stroke-width="4" fill="none"></rect><path d="m108.32 311.76-3.86-55.55a10.79 10.79 0 0 0-10.76-10.07H87a10.78 10.78 0 0 0-10.75 10L71.65 322a5.39 5.39 0 0 0 5.35 5.71h63.78a2.69 2.69 0 0 0 2.52-3.71l-3.2-10.56a2.68 2.68 0 0 0-2.49-1.68z" stroke="#45413c" stroke-linecap="round" stroke-linejoin="round" stroke-width="4" fill="#e0e0e0"></path><path stroke="#45413c" stroke-linecap="round" stroke-linejoin="round" stroke-width="4" fill="none" d="m108.32 311.76.33 4.92m12.73-4.92 3.38 15.95"></path><circle cx="90.08" cy="288.85" r="8.08" stroke="#45413c" stroke-linecap="round" stroke-linejoin="round" stroke-width="4" fill="#ffffff"></circle><path stroke="#45413c" stroke-linecap="round" stroke-linejoin="round" stroke-width="4" fill="none" d="M30.49 290.77v-11.14m8.8 11.14v-11.14m8.8 11.14v-11.14"></path><path d="M264.4 260.35a3 3 0 0 0-2.16-3.6l-7-1.76a3 3 0 0 0-3.6 2.15l-13 51.41 12.73 3.21z" fill="#525252" stroke="#45413c" stroke-linecap="round" stroke-linejoin="round" stroke-width="4"></path><path d="M279.7 299.23c-11.12 7.42-53.31-4.94-58.12 12.53-5.11 18.56 14.9 24.47 42.36 24.47 29.38 0 45.53-12 51.05-26.74" stroke="#45413c" stroke-linecap="round" stroke-linejoin="round" stroke-width="4" fill="#ffffff"></path></g></g></svg>