<svg xmlns="http://www.w3.org/2000/svg" viewBox="0 0 450 450"><g transform="matrix(1.2162162162162162,0,0,1.2162162162162162,0,0)"><g data-name="Scenes"><path d="M112.91 238.24a.26.26 0 0 1 .1.21.26.26 0 0 1-.11.21l-100 78.52a2.2 2.2 0 0 1-2.07.29A1.65 1.65 0 0 1 9.66 316c0-3.36 0-6.53.06-9.7 0-.48.78-1 1.34-1.4 8.1-5.31 16.24-10.58 24.33-15.89 7.38-4.84 14.71-9.75 22.09-14.59q27.45-18 54.93-35.95a3.26 3.26 0 0 1 .5-.23zM9.67 78a1.62 1.62 0 0 1 1.06-1.47 2.17 2.17 0 0 1 2 .16l110 71.4a.38.38 0 0 1 .11.56c-1.82-1-3.67-1.91-5.48-2.91q-24.61-13.55-49.24-27.12c-9.66-5.31-19.38-10.54-29.07-15.81L11.18 87.66a2.55 2.55 0 0 1-1.57-2.56c.09-2.31.07-4.63.06-7.1zm339.39-42a1.93 1.93 0 0 1 1.78 1 1.46 1.46 0 0 1-.38 1.79L244 132.13a.53.53 0 0 1-.64 0c2.58-2.58 5.15-5.17 7.75-7.74l22.38-22.2q19.92-19.75 39.83-39.51c7.91-7.84 16-15.52 23.63-23.58a9.28 9.28 0 0 1 8.43-3.25c1.17.15 2.4.15 3.68.15zm-78.61 104.25a.43.43 0 0 1-.13-.35.48.48 0 0 1 .22-.31l86.82-52.22a2.23 2.23 0 0 1 2-.12 1.62 1.62 0 0 1 1 1.45c0 2.35 0 4.58-.08 6.8 0 .46-.81 1-1.4 1.32q-24.16 11.85-48.36 23.67-19.29 9.48-38.5 19c-.5.29-1.02.51-1.57.76zM34.77 38.63a1.43 1.43 0 0 1-.33-1.75 1.94 1.94 0 0 1 1.74-1c2.34 0 4.5 0 6.66.05a2.92 2.92 0 0 1 1.82.84q19.25 21 38.41 42Q96.92 94 110.75 109.23q.34.39.66.81a.43.43 0 0 1-.13.64zM360.38 292.5a1.63 1.63 0 0 1-1.07 1.46 2.16 2.16 0 0 1-2-.18l-77.66-51.52a.33.33 0 0 1-.1-.47c1.9 1 3.81 1.9 5.68 2.9q23.12 12.3 46.2 24.63 14 7.49 28 15.05a1.94 1.94 0 0 1 .94 1.36c.02 2.21.02 4.42.01 6.77zM26.86 334.35a1.94 1.94 0 0 1-1.76-1 1.48 1.48 0 0 1 .37-1.78c34.16-30.59 68-60.88 101.76-91.16a.57.57 0 0 1 .7 0l-6 5.83c-7.79 7.55-15.61 15.07-23.38 22.64q-18.53 18-37 36.1c-7.28 7.09-14.63 14.12-21.93 21.2-2.38 2.31-4.65 4.72-7.1 7a5 5 0 0 1-2.76 1.12c-.94.03-1.89.05-2.9.05zM9.7 48.3a1.66 1.66 0 0 1 1.17-1.49 2.18 2.18 0 0 1 2.07.32l103.18 84.14a.37.37 0 0 1 0 .57c-2.36-1.76-4.73-3.5-7.08-5.26-10.74-8.07-21.44-16.17-32.2-24.21C64.52 93.15 52.11 84 39.76 74.76c-9.43-7-18.78-14.15-28.21-21.19-1.34-1-2.1-2-1.94-3.58a15.53 15.53 0 0 0 .09-1.69zM203.23 36a2.11 2.11 0 0 1 1.44.56 1.49 1.49 0 0 1 .46 1.29q-6.34 42.84-12.64 85.44a.45.45 0 0 1-.5.34q2.41-43 4.83-86.07a1.81 1.81 0 0 1 1.91-1.56zm35.48 219.7a.46.46 0 0 1 .33-.07.45.45 0 0 1 .28.16l60.33 76a1.45 1.45 0 0 1 .11 1.68 2 2 0 0 1-1.68.87c-1.71 0-3.3 0-4.88-.08-.59 0-1.3-.74-1.68-1.28-5.19-7.57-10.31-15.18-15.49-22.75q-10.51-15.36-21.03-30.67l-16-23.25a2.64 2.64 0 0 1-.29-.61zm-111.06 77.4a1.91 1.91 0 0 1-1.83 1.14h-4.68a2 2 0 0 1-1.59-.72 1.44 1.44 0 0 1-.18-1.54l32.88-67.56a.62.62 0 0 1 .73-.28zm205.47-1.48a1.44 1.44 0 0 1 .31 1.75 1.94 1.94 0 0 1-1.75 1c-.94 0-1.85 0-2.76-.09a3.62 3.62 0 0 1-2.09-1.19c-4.79-5.06-9.51-10.18-14.28-15.27q-15.06-16-30.15-32.07c-7.36-7.86-14.66-15.74-22-23.61a.22.22 0 0 1 0-.34.32.32 0 0 1 .4 0zM217.09 113.13a.28.28 0 0 1-.23-.35c.72-2.12 1.39-4.26 2.18-6.36 2.15-5.7 4.35-11.39 6.56-17.07 2.29-5.93 4.63-11.84 6.91-17.78q5.22-13.57 10.39-27.2c.88-2.32 1.73-4.64 2.64-6.94a2 2 0 0 1 2.46-1.56 19.31 19.31 0 0 0 2.43.09 2 2 0 0 1 1.6.71 1.41 1.41 0 0 1 .2 1.53c-11.79 25.11-23.47 50.02-35.14 74.93zM95.07 334.28a2 2 0 0 1-1.66-.81 1.41 1.41 0 0 1 0-1.63l40.7-61.18a.46.46 0 0 1 .56-.14c-2.56 4.64-5.11 9.28-7.69 13.92q-8.52 15.38-17.06 30.73C106.62 321.1 103.3 327 100 333a2.3 2.3 0 0 1-2.48 1.38c-.78-.09-1.59-.1-2.45-.1zM9.71 152a1.56 1.56 0 0 1 .74-1.29 2.15 2.15 0 0 1 1.65-.29l76.27 16.42a.45.45 0 0 1 .39.51l-6.54-1c-5.64-.86-11.29-1.71-16.93-2.59-5.38-.84-10.74-1.72-16.11-2.55-6.79-1.05-13.58-2-20.36-3.1-5.24-.83-10.47-1.74-15.7-2.61-1.07-.17-2.14-.29-3.21-.45-.08 0-.19-.19-.19-.28-.01-.85-.01-1.77-.01-2.77zM360.4 263.47a1.54 1.54 0 0 1-1 1.09 2 2 0 0 1-1.61 0l-82.26-38.46a.46.46 0 0 1-.24-.65c2 .79 3.93 1.56 5.87 2.38q22.35 9.4 44.69 18.81 15.94 6.69 31.95 13.29c1.87.77 3.03 1.64 2.6 3.54zM88.94 142.73a.61.61 0 0 1-.71.25c-.69-.23-1.39-.44-2-.72q-23.25-9.75-46.51-19.54-14.48-6.06-28.93-12.14a1.82 1.82 0 0 1-1-1.14c0-.39-.06-.78-.07-1.18a1.59 1.59 0 0 1 .92-1.42 2.17 2.17 0 0 1 1.91 0zm193.98 51a.32.32 0 0 1 .35-.26l75.14 3.22a1.77 1.77 0 0 1 1.82 1.63v1.37a1.55 1.55 0 0 1-.64 1.23 2.18 2.18 0 0 1-1.5.4zM12.46 283.82a2 2 0 0 1-1.84.11 1.52 1.52 0 0 1-1-1.34c0-3.93 0-3.9 4-5.86q18.75-9.1 37.38-18.24a1 1 0 0 1 1.18.24.69.69 0 0 1-.23 1zM12 214a2.16 2.16 0 0 1-1.59-.34 1.55 1.55 0 0 1-.7-1.26v-.19a1.73 1.73 0 0 1 1.63-1.61l82.17-10.78a.45.45 0 0 1 .51.31zm206.22 118.34a1.44 1.44 0 0 1-.36 1.32 2 2 0 0 1-1.41.64h-.29c-1.34.12-1.66-.36-1.85-1.48-.94-5.36-2.08-10.7-3.09-16.06-.9-4.78-1.72-9.57-2.58-14.35q-1.51-8.49-3-17-1.42-8-2.89-16c-.24-1.31-.52-2.62-.8-3.92a.55.55 0 0 1 .5-.62zM10.6 258.4a.75.75 0 0 1-.62 0 .55.55 0 0 1-.32-.46c-.1-3.09-.07-3 3.36-4.29 9.23-3.37 18.42-6.81 27.65-10.18q17.82-6.52 35.68-13a.29.29 0 0 1 .36.12.23.23 0 0 1-.13.31zm340.63 73.24a.94.94 0 0 1 0 1.46 1.36 1.36 0 0 1-1.71 0l-.2-.18c-5.53-5.2-11.15-10.33-16.8-15.42-9.46-8.53-19-17-28.44-25.51q-13-11.7-25.92-23.45a.26.26 0 0 1 0-.4.38.38 0 0 1 .46 0zm6.32-216a2.2 2.2 0 0 1 2 .15 1.52 1.52 0 0 1 .73 1.6c-.24 1.15-1.12 1.48-3.49 2.33q-12 4.35-23.87 8.79-16.51 6.13-33 12.32a.3.3 0 0 1-.36-.11.22.22 0 0 1 .13-.31zM147.1 80.68a.45.45 0 0 1-.52-.23l-18-42.26a1.45 1.45 0 0 1 .23-1.49 2 2 0 0 1 1.57-.7h1.14a1.88 1.88 0 0 1 1.85 1.21q6.83 21.67 13.73 43.47zm48.15 251.82a1.48 1.48 0 0 1-.51 1.22 2.09 2.09 0 0 1-1.4.52 1.47 1.47 0 0 1-1.56-1.3q-.69-28.49-1.38-56.89a.31.31 0 0 1 .32-.3c1.51 18.86 3.01 37.71 4.53 56.75zm162.86-174.11a2.09 2.09 0 0 1 1.57.33 1.54 1.54 0 0 1 .69 1.25c0 1.12-.58 1.23-2.58 1.5-6.22.84-12.45 1.59-18.67 2.41-4.18.54-8.36 1.17-12.55 1.71-4.87.63-9.76 1.18-14.63 1.81-4.54.58-9.08 1.23-13.61 1.84a.27.27 0 0 1-.31-.19.24.24 0 0 1 .21-.27zM307.65 36a2 2 0 0 1 1.92.78 1.44 1.44 0 0 1-.12 1.82l-27.71 31.29a.38.38 0 0 1-.43.1 2.86 2.86 0 0 1 .29-.82q12-16.15 24.14-32.28a3.19 3.19 0 0 1 1.91-.89zM106.73 93.85a.64.64 0 0 1-.38.1.61.61 0 0 1-.35-.17l-49.93-57a.83.83 0 0 1 0-1.13c.89.44 2.07.68 2.62 1.32C68 47.9 77.29 58.88 86.57 69.84q9.5 11.22 19 22.42c.43.51.77 1.06 1.16 1.59zM282.18 334a1.08 1.08 0 0 1-1.18.16 3 3 0 0 1-1.27-.84c-3.57-5.66-7-11.39-10.57-17.06-4.7-7.47-9.49-14.9-14.23-22.35-1-1.54-1.93-3.1-2.89-4.65a.43.43 0 0 1 0-.38.52.52 0 0 1 .29-.29zm-40.98-1.15a.78.78 0 0 1-.59 1 1 1 0 0 1-1.16-.5.75.75 0 0 1 0-.16c-2.34-6.87-4.78-13.71-7.24-20.55-2.71-7.52-5.47-15-8.2-22.53a.28.28 0 0 1 .22-.36.35.35 0 0 1 .42.18zM180.52 82.18a.33.33 0 0 1-.35-.28l-3-44.84a.79.79 0 0 1 .81-.77.81.81 0 0 1 .91.69.62.62 0 0 0 0 .13c.37 9.9.81 19.8 1.19 29.7.18 4.51.28 9 .42 13.54.03.65.02 1.22.02 1.83zM46.18 191a.43.43 0 0 1 .46.37.41.41 0 0 1-.42.4l-35.48 1.72a.81.81 0 0 1-.89-.64c-.1-.77.12-.78 1.28-.82 11.69-.37 23.37-.77 35.05-1.03zm257.52-15.78a.34.34 0 0 1 .07-.3.47.47 0 0 1 .31-.16c2.74-.32 5.48-.67 8.24-.93 5.79-.56 11.59-1 17.38-1.61s11.43-1.24 17.14-1.86c4-.43 8-.86 12-1.22a1.15 1.15 0 0 1 .32 0 .57.57 0 0 1 .49.57.6.6 0 0 1-.57.52q-6.94.7-13.91 1.32-15.13 1.37-30.29 2.68zM61.92 155.05a.37.37 0 0 1-.21.28.5.5 0 0 1-.38.06l-6.7-1.57-27.24-6.49c-5.19-1.23-10.41-2.42-15.58-3.72a14.44 14.44 0 0 1-1.47-.32.61.61 0 0 1-.39-.81.8.8 0 0 1 .91-.39zM61 212.16a.33.33 0 0 1-.28.37l-50 10.92a1.19 1.19 0 0 1-1.16-.36c.42-.34.79-.88 1.28-1 6.32-1.28 12.66-2.46 19-3.74 6.17-1.25 12.32-2.58 18.49-3.87 3.71-.78 7.41-1.57 11.12-2.32a7.67 7.67 0 0 1 1.55 0zm112 120.5a1.81 1.81 0 0 1-1.92 1.56 1.31 1.31 0 0 1-.92-.36.94.94 0 0 1-.29-.84c1.36-8 2.71-15.87 4-23.75a.32.32 0 0 1 .35-.24c-.34 7.82-.76 15.64-1.22 23.63zM360.05 127.4a.84.84 0 0 1-.13 1.17 1.68 1.68 0 0 1-.59.37q-16.9 5.59-33.83 11.13-3.44 1.13-6.88 2.2a.35.35 0 0 1-.42-.16.26.26 0 0 1 .18-.36zM88 99.1a.27.27 0 0 1 .36 0l10.84 9.23a.22.22 0 0 1 0 .34c-2.29-1.83-4.61-3.63-6.83-5.52-1.56-1.29-2.95-2.7-4.37-4.05zm137.24-30.33a19.7 19.7 0 0 1-.35 2.88c-.13.5-.29 1-.47 1.48a.27.27 0 0 1-.33.15.24.24 0 0 1-.19-.28l1.35-4.17a.13.13 0 0 0-.01-.06zM71.2 196.74l6.23-.53a.73.73 0 0 1 .5.13.54.54 0 0 1 .23.4zm201.71-81.81a.17.17 0 0 0 .19 0l4-3.94a.61.61 0 0 1 .41-.17.64.64 0 0 1 .43.15z" fill="#e0e0e0"></path><path d="M128 217.73c-19.46 0-34.86-8.88-43-25.47a8.18 8.18 0 0 1 14.7-7.17c4.32 8.86 11.17 14 20.94 15.65 9.25 1.58 18.73-.42 23.55-1.75a8.18 8.18 0 1 1 4.36 15.76 77.49 77.49 0 0 1-20.55 2.98z" stroke="#45413c" stroke-linecap="round" stroke-linejoin="round" stroke-width="4" fill="#ffffff"></path><path d="M164.56 70.68a44.27 44.27 0 0 1-37.07-30.38 3.56 3.56 0 0 0-6.32-.92 44.26 44.26 0 0 0 14.77 63.45 67.22 67.22 0 0 1 28.62-32.15z" fill="#fff5e3"></path><path d="M113.94 58c-.11.81-.22 1.63-.29 2.45a44.25 44.25 0 0 0 22.29 42.37A66.73 66.73 0 0 1 145.43 87a50.61 50.61 0 0 1-31.49-29z" fill="#f0d5a8"></path><path d="M197.59 190.92a62.09 62.09 0 0 0 60.59-75.48 61.12 61.12 0 0 0-47.12-47.12 62 62 0 1 0-13.47 122.6z" stroke="#45413c" stroke-linecap="round" stroke-linejoin="round" stroke-width="4" fill="#ffffff"></path><path d="M164.56 70.68a44.27 44.27 0 0 1-37.07-30.38 3.56 3.56 0 0 0-6.32-.92 44.26 44.26 0 0 0 14.77 63.45 67.22 67.22 0 0 1 28.62-32.15z" fill="none" stroke="#45413c" stroke-linecap="round" stroke-linejoin="round" stroke-width="4"></path><path d="M227.28 70.68a44.26 44.26 0 0 0 37.07-30.38 3.56 3.56 0 0 1 6.33-.92 44.26 44.26 0 0 1-14.77 63.45 67.24 67.24 0 0 0-28.63-32.15z" fill="#fff5e3"></path><path d="M277.9 58c.12.81.22 1.63.3 2.45a44.29 44.29 0 0 1-22.29 42.37 66.76 66.76 0 0 0-9.5-15.82 50.61 50.61 0 0 0 31.49-29z" fill="#f0d5a8"></path><path d="M227.28 70.68a44.26 44.26 0 0 0 37.07-30.38 3.56 3.56 0 0 1 6.33-.92 44.26 44.26 0 0 1-14.77 63.45 67.24 67.24 0 0 0-28.63-32.15z" fill="none" stroke="#45413c" stroke-linecap="round" stroke-linejoin="round" stroke-width="4"></path><path d="M212.13 63.51a67 67 0 0 0-78.29 45h127.61a66 66 0 0 0-49.32-45z" fill="#87898c"></path><path d="M220.71 79.8a104.49 104.49 0 0 1 33.95 13.73 66 66 0 0 0-42.53-30 67 67 0 0 0-71.55 30.35C163 79.65 191.1 73.58 220.71 79.8z" fill="#bdbec0"></path><path d="M212.13 63.51a67 67 0 0 0-78.29 45h127.61a66 66 0 0 0-49.32-45z" fill="none" stroke="#45413c" stroke-linecap="round" stroke-linejoin="round" stroke-width="4"></path><path d="M261.62 109.05c-.05-.19-.11-.38-.17-.58h-43.19a13.22 13.22 0 0 1-13.2-12.6 223.69 223.69 0 0 1 .82-32.62 3.27 3.27 0 0 0-.83-2.51c-2.09-2.31-12.42-2.75-14.94 0a3.21 3.21 0 0 0-.85 2.47 280.21 280.21 0 0 1 .67 32.65 13.18 13.18 0 0 1-13.2 12.63h-42.89l-.18.59a5.67 5.67 0 0 0 5.41 7.45h117.15a5.7 5.7 0 0 0 5.47-4.11 5.88 5.88 0 0 0-.07-3.37z" fill="#bdbec0" stroke="#45413c" stroke-linecap="round" stroke-linejoin="round" stroke-width="4"></path><path d="M164.88 103.76a20.18 20.18 0 1 0 16.65 12 39.55 39.55 0 0 1-16.65-12z" stroke="#45413c" stroke-linecap="round" stroke-linejoin="round" stroke-width="4" fill="#ffffff"></path><path d="M188.21 117.6a39.66 39.66 0 0 1-27.57-20.15" fill="none" stroke="#45413c" stroke-linecap="round" stroke-linejoin="round" stroke-width="4"></path><circle cx="165.74" cy="125.73" r="2.88" fill="#45413c"></circle><path d="M227 103.76a20.18 20.18 0 1 1-16.65 12 39.49 39.49 0 0 0 16.65-12z" stroke="#45413c" stroke-linecap="round" stroke-linejoin="round" stroke-width="4" fill="#ffffff"></path><path d="M203.63 117.6a39.66 39.66 0 0 0 27.57-20.15" fill="none" stroke="#45413c" stroke-linecap="round" stroke-linejoin="round" stroke-width="4"></path><circle cx="226.11" cy="125.73" r="2.88" fill="#45413c"></circle><path fill="#daedf7" d="m90.01 158.98-18.42 8.32-39.96-65.47 8.98-27.64 26.67 11.53 22.73 73.26z"></path><path fill="#ffffff" d="M90.01 158.98 67.28 85.72 40.61 74.19l40.19 88.95 9.21-4.16z"></path><path d="M104.48 199.25a6.71 6.71 0 0 1-12.23 5.53L79.43 176.4l12.23-5.52z" fill="#bf8256" stroke="#45413c" stroke-linecap="round" stroke-linejoin="round" stroke-width="4"></path><path d="M99.61 157a9.34 9.34 0 0 1-4.67 12.36l-18.8 8.5a9.34 9.34 0 0 1-12.35-4.67 2.18 2.18 0 0 1 1.09-2.89l31.84-14.39a2.2 2.2 0 0 1 2.89 1.09z" fill="#ffe500" stroke="#45413c" stroke-linecap="round" stroke-linejoin="round" stroke-width="4"></path><path fill="none" stroke="#45413c" stroke-linecap="round" stroke-linejoin="round" stroke-width="4" d="m90.01 158.98-18.42 8.32-39.96-65.47 8.98-27.64 26.67 11.53 22.73 73.26z"></path><circle cx="92.25" cy="190.92" r="11" stroke="#45413c" stroke-linecap="round" stroke-linejoin="round" stroke-width="4" fill="#ffffff"></circle><path d="M276.51 280.16a7.66 7.66 0 0 1-3.42 6.39L200.17 335a7.68 7.68 0 0 1-8.5 0l-72.92-48.48a7.69 7.69 0 0 1-3.42-6.39V159.1a7.67 7.67 0 0 1 7.67-7.67h145.84a7.66 7.66 0 0 1 7.67 7.67z" fill="#ffdf3d"></path><path d="M195.92 151.43H123a7.67 7.67 0 0 0-7.67 7.67v121.06a7.69 7.69 0 0 0 3.42 6.39L191.67 335a7.65 7.65 0 0 0 4.25 1.29z" fill="#ffbe3d"></path><path d="M276.51 280.16a7.66 7.66 0 0 1-3.42 6.39L200.17 335a7.68 7.68 0 0 1-8.5 0l-72.92-48.48a7.69 7.69 0 0 1-3.42-6.39V159.1a7.67 7.67 0 0 1 7.67-7.67h145.84a7.66 7.66 0 0 1 7.67 7.67z" fill="none" stroke="#45413c" stroke-linecap="round" stroke-linejoin="round" stroke-width="4"></path><path d="M178.21 173.35a4 4 0 0 1 4 4v97.94a9.61 9.61 0 0 1-12.58 9.12l-36-11.81a9.59 9.59 0 0 1-6.61-9.11v-14a4 4 0 0 1 4-4h11.18a4 4 0 0 1 4 4v5.69a1.92 1.92 0 0 0 1.32 1.82l13 4.26a1.93 1.93 0 0 0 2.52-1.82v-82.09a4 4 0 0 1 4-4z" fill="#f0f0f0"></path><path d="m253.58 273.78-39.9 9.87a4 4 0 0 1-5-3.88v-11.06a9.59 9.59 0 0 1 9.59-9.6h23.76a1.91 1.91 0 0 0 1.97-1.91V240a1.91 1.91 0 0 0-1.92-1.91h-23.77a9.59 9.59 0 0 1-9.59-9.6v-45.55a9.59 9.59 0 0 1 11.44-9.41l35.27 6.93c7.86 1.54 5.12 14.23-3.7 14.23l-21.9-.08a1.87 1.87 0 0 0-1.36.55 1.89 1.89 0 0 0-.57 1.36V217a1.92 1.92 0 0 0 1.92 1.92h23.76a9.59 9.59 0 0 1 9.59 9.59v35.73a9.59 9.59 0 0 1-9.59 9.54z" fill="#ffffff"></path></g></g></svg>